<mxfile host="app.diagrams.net" agent="Mozilla/5.0 (X11; Linux x86_64) AppleWebKit/537.36 (KHTML, like Gecko) Chrome/127.0.0.0 Safari/537.36" version="24.7.7">
  <diagram name="Pagina-1" id="aMDKYn6Pp6MxFugIhehs">
    <mxGraphModel dx="1368" dy="754" grid="1" gridSize="10" guides="1" tooltips="1" connect="1" arrows="1" fold="1" page="1" pageScale="1" pageWidth="827" pageHeight="1169" math="0" shadow="0">
      <root>
        <mxCell id="0" />
        <mxCell id="1" parent="0" />
        <mxCell id="UGhXugJukZMZ3-rSTClR-1" value="MeteoriteLandingRaw" style="swimlane;fontStyle=1;childLayout=stackLayout;horizontal=1;startSize=26;horizontalStack=0;resizeParent=1;resizeParentMax=0;resizeLast=0;collapsible=1;marginBottom=0;" vertex="1" parent="1">
          <mxGeometry x="240" y="160" width="360" height="390" as="geometry" />
        </mxCell>
        <mxCell id="UGhXugJukZMZ3-rSTClR-2" value="  +mass: float" style="text;strokeColor=none;fillColor=none;align=left;verticalAlign=top;spacingLeft=4;spacingRight=4;overflow=hidden;rotatable=0;points=[[0,0.5],[1,0.5]];portConstraint=eastwest;" vertex="1" parent="UGhXugJukZMZ3-rSTClR-1">
          <mxGeometry y="26" width="360" height="26" as="geometry" />
        </mxCell>
        <mxCell id="UGhXugJukZMZ3-rSTClR-3" value="  +location: [float, float]" style="text;strokeColor=none;fillColor=none;align=left;verticalAlign=top;spacingLeft=4;spacingRight=4;overflow=hidden;rotatable=0;points=[[0,0.5],[1,0.5]];portConstraint=eastwest;" vertex="1" parent="UGhXugJukZMZ3-rSTClR-1">
          <mxGeometry y="52" width="360" height="26" as="geometry" />
        </mxCell>
        <mxCell id="UGhXugJukZMZ3-rSTClR-4" value="  +city: string" style="text;strokeColor=none;fillColor=none;align=left;verticalAlign=top;spacingLeft=4;spacingRight=4;overflow=hidden;rotatable=0;points=[[0,0.5],[1,0.5]];portConstraint=eastwest;" vertex="1" parent="UGhXugJukZMZ3-rSTClR-1">
          <mxGeometry y="78" width="360" height="26" as="geometry" />
        </mxCell>
        <mxCell id="UGhXugJukZMZ3-rSTClR-5" value="  +state: string" style="text;strokeColor=none;fillColor=none;align=left;verticalAlign=top;spacingLeft=4;spacingRight=4;overflow=hidden;rotatable=0;points=[[0,0.5],[1,0.5]];portConstraint=eastwest;" vertex="1" parent="UGhXugJukZMZ3-rSTClR-1">
          <mxGeometry y="104" width="360" height="26" as="geometry" />
        </mxCell>
        <mxCell id="UGhXugJukZMZ3-rSTClR-6" value="  +country: string" style="text;strokeColor=none;fillColor=none;align=left;verticalAlign=top;spacingLeft=4;spacingRight=4;overflow=hidden;rotatable=0;points=[[0,0.5],[1,0.5]];portConstraint=eastwest;" vertex="1" parent="UGhXugJukZMZ3-rSTClR-1">
          <mxGeometry y="130" width="360" height="26" as="geometry" />
        </mxCell>
        <mxCell id="UGhXugJukZMZ3-rSTClR-7" value="  +classification: string" style="text;strokeColor=none;fillColor=none;align=left;verticalAlign=top;spacingLeft=4;spacingRight=4;overflow=hidden;rotatable=0;points=[[0,0.5],[1,0.5]];portConstraint=eastwest;" vertex="1" parent="UGhXugJukZMZ3-rSTClR-1">
          <mxGeometry y="156" width="360" height="26" as="geometry" />
        </mxCell>
        <mxCell id="UGhXugJukZMZ3-rSTClR-8" value="  +material_type: string" style="text;strokeColor=none;fillColor=none;align=left;verticalAlign=top;spacingLeft=4;spacingRight=4;overflow=hidden;rotatable=0;points=[[0,0.5],[1,0.5]];portConstraint=eastwest;" vertex="1" parent="UGhXugJukZMZ3-rSTClR-1">
          <mxGeometry y="182" width="360" height="26" as="geometry" />
        </mxCell>
        <mxCell id="UGhXugJukZMZ3-rSTClR-9" value="  +chemical_composition: string" style="text;strokeColor=none;fillColor=none;align=left;verticalAlign=top;spacingLeft=4;spacingRight=4;overflow=hidden;rotatable=0;points=[[0,0.5],[1,0.5]];portConstraint=eastwest;" vertex="1" parent="UGhXugJukZMZ3-rSTClR-1">
          <mxGeometry y="208" width="360" height="26" as="geometry" />
        </mxCell>
        <mxCell id="UGhXugJukZMZ3-rSTClR-10" value="  +clan: string" style="text;strokeColor=none;fillColor=none;align=left;verticalAlign=top;spacingLeft=4;spacingRight=4;overflow=hidden;rotatable=0;points=[[0,0.5],[1,0.5]];portConstraint=eastwest;" vertex="1" parent="UGhXugJukZMZ3-rSTClR-1">
          <mxGeometry y="234" width="360" height="26" as="geometry" />
        </mxCell>
        <mxCell id="UGhXugJukZMZ3-rSTClR-11" value="  +class: string" style="text;strokeColor=none;fillColor=none;align=left;verticalAlign=top;spacingLeft=4;spacingRight=4;overflow=hidden;rotatable=0;points=[[0,0.5],[1,0.5]];portConstraint=eastwest;" vertex="1" parent="UGhXugJukZMZ3-rSTClR-1">
          <mxGeometry y="260" width="360" height="26" as="geometry" />
        </mxCell>
        <mxCell id="UGhXugJukZMZ3-rSTClR-12" value="  +date: float" style="text;strokeColor=none;fillColor=none;align=left;verticalAlign=top;spacingLeft=4;spacingRight=4;overflow=hidden;rotatable=0;points=[[0,0.5],[1,0.5]];portConstraint=eastwest;" vertex="1" parent="UGhXugJukZMZ3-rSTClR-1">
          <mxGeometry y="286" width="360" height="26" as="geometry" />
        </mxCell>
        <mxCell id="UGhXugJukZMZ3-rSTClR-13" value="  +month: int" style="text;strokeColor=none;fillColor=none;align=left;verticalAlign=top;spacingLeft=4;spacingRight=4;overflow=hidden;rotatable=0;points=[[0,0.5],[1,0.5]];portConstraint=eastwest;" vertex="1" parent="UGhXugJukZMZ3-rSTClR-1">
          <mxGeometry y="312" width="360" height="26" as="geometry" />
        </mxCell>
        <mxCell id="UGhXugJukZMZ3-rSTClR-14" value="  +quarter: int" style="text;strokeColor=none;fillColor=none;align=left;verticalAlign=top;spacingLeft=4;spacingRight=4;overflow=hidden;rotatable=0;points=[[0,0.5],[1,0.5]];portConstraint=eastwest;" vertex="1" parent="UGhXugJukZMZ3-rSTClR-1">
          <mxGeometry y="338" width="360" height="26" as="geometry" />
        </mxCell>
        <mxCell id="UGhXugJukZMZ3-rSTClR-15" value="  +year: int" style="text;strokeColor=none;fillColor=none;align=left;verticalAlign=top;spacingLeft=4;spacingRight=4;overflow=hidden;rotatable=0;points=[[0,0.5],[1,0.5]];portConstraint=eastwest;" vertex="1" parent="UGhXugJukZMZ3-rSTClR-1">
          <mxGeometry y="364" width="360" height="26" as="geometry" />
        </mxCell>
      </root>
    </mxGraphModel>
  </diagram>
</mxfile>
